<svg width="24" height="24" viewBox="0 0 24 24" fill="none" xmlns="http://www.w3.org/2000/svg">
<path d="M12 16.0008C12.5523 16.0009 13 16.4486 13 17.0008V17.1005C12.9998 17.6525 12.5522 18.1004 12 18.1005C11.4479 18.1004 11.0003 17.6525 11 17.1005V17.0008C11.0001 16.4486 11.4478 16.0009 12 16.0008Z" fill="#555555"/>
<path d="M12 9.00085C12.5523 9.00089 13 9.4486 13 10.0008V14.0008C12.9996 14.5527 12.552 15.0008 12 15.0008C11.448 15.0008 11.0005 14.5528 11 14.0008V10.0008C11.0001 9.44859 11.4478 9.00086 12 9.00085Z" fill="#555555"/>
<path fill-rule="evenodd" clip-rule="evenodd" d="M9.31645 4.13073C10.422 1.91965 13.5781 1.91963 14.6836 4.13073L21.4473 17.659C22.4441 19.6536 20.9937 22.0008 18.7637 22.0008H5.23637C3.00643 22.0008 1.55593 19.6536 2.55278 17.659L9.31645 4.13073ZM12.8946 5.02526C12.5492 4.33447 11.6034 4.29123 11.1827 4.89538L11.1055 5.02526L4.34184 18.5536C4.00989 19.2184 4.4932 20.0008 5.23637 20.0008H18.7637C19.5069 20.0008 19.9901 19.2184 19.6582 18.5536L12.8946 5.02526Z" fill="#555555"/>
</svg>
