<svg width="24" height="24" viewBox="0 0 24 24" fill="none" xmlns="http://www.w3.org/2000/svg">
<path d="M13.793 8.79304C14.1836 8.40252 14.8166 8.40252 15.2071 8.79304C15.5975 9.18357 15.5976 9.8166 15.2071 10.2071L13.4141 12.0001L15.2071 13.793C15.5975 14.1836 15.5976 14.8166 15.2071 15.2071C14.8166 15.5976 14.1836 15.5975 13.793 15.2071L12.0001 13.4141L10.2071 15.2071C9.81659 15.5976 9.18355 15.5975 8.79303 15.2071C8.40251 14.8166 8.40253 14.1836 8.79303 13.793L10.586 12.0001L8.79303 10.2071C8.40251 9.81659 8.40253 9.18357 8.79303 8.79304C9.18355 8.40252 9.81657 8.40252 10.2071 8.79304L12.0001 10.586L13.793 8.79304Z" fill="#555555"/>
<path fill-rule="evenodd" clip-rule="evenodd" d="M9.75104 1.93171C10.9932 0.689593 13.007 0.689591 14.2491 1.93171L22.0684 9.75105C23.3105 10.9932 23.3105 13.007 22.0684 14.2491L14.2491 22.0684C13.007 23.3105 10.9932 23.3105 9.75104 22.0684L1.9317 14.2491C0.689589 13.007 0.689602 10.9932 1.9317 9.75105L9.75104 1.93171ZM12.835 3.34578C12.374 2.8847 11.6262 2.8847 11.1651 3.34578L3.34576 11.1651C2.88472 11.6262 2.8847 12.374 3.34576 12.835L11.1651 20.6544C11.6262 21.1154 12.374 21.1154 12.835 20.6544L20.6544 12.835C21.1154 12.374 21.1154 11.6262 20.6544 11.1651L12.835 3.34578Z" fill="#555555"/>
</svg>
